<svg id="Layer_1" data-name="Layer 1" xmlns="http://www.w3.org/2000/svg" xmlns:xlink="http://www.w3.org/1999/xlink" width="1120.61" height="224.23" viewBox="0 0 1120.61 224.23">
  <defs>
    <style>
      .cls-1 {
        opacity: 0;
        filter: url(#AI_GaussianBlur_7);
        animation-duration: 10s;
        animation-delay:3s;
        animation-name: bagLight;
        animation-timing-function: linear;
        animation-iteration-count: infinite;
        animation-fill-mode: forwards;
      }

      .cls-2 {
        fill: #b75a65;
      }

      .cls-4 {
        opacity: 0.7;
        filter: url(#AI_GaussianBlur_4);
      }

      .cls-5 {
        fill: #000;
      }

      .cls-6 {
        fill: #bf2631;
      }

      .cls-7 {
        fill: none;
        stroke: #d1d1d1;
        stroke-miterlimit: 10;
        stroke-width: 3px;
        animation-name: lighting;
        animation-duration: 10s;
        animation-delay:3s;
        animation-timing-function: linear;
        animation-iteration-count: infinite;
      }

      .letraB{
          animation-delay:4s;
        }
      .letraL{
        animation-delay:2.5s;
      }  




       @keyframes lighting{
    0%{ stroke-width: 3px;
        stroke: #d3d1d1; 
    }

    0.5%{ stroke-width: 6px;
          stroke: #fff;
          }

    1%{ stroke-width: 3px;
        stroke: #d3d1d1;}

    1.5%{ stroke-width: 6px;
          stroke: #fff;
           }

    80%{stroke-width: 6px;
          stroke: #fff;

       
        }
    
    80.5%{stroke-width: 3px;
        stroke: #d3d1d1; }

    81%{ stroke-width: 6px;
          stroke: #fff;
           }

    81.5%{ stroke-width: 3px;
        stroke: #d3d1d1; }

     82%{ stroke-width: 6px;
          stroke: #fff;
           }
        
    100%{ stroke-width: 6px;
          stroke: #fff;
           }    
}

@keyframes strokefat{
   0%{ stroke-width: 3px;
      stroke: #d3d1d1; 
    }

    100%{ stroke-width: 6px;
        stroke: #fff;
    }

   
    }

    @keyframes bagLight{
   0%{ opacity:0
         
    }

    0.5%{ opacity:0.3;
          
          }

    1%{ opacity:0
        }

    1.5%{ opacity:0.3;
          
           }

    80%{opacity:0.3;
          

       
        }
    
    80.5%{opacity:0
         }

    81%{ opacity:0.3;
          
           }

    81.5%{ opacity:0
         }

     82%{ opacity:0.3;
          
           }
        
    100%{ opacity:0.3;
          
           }    
}
    
    @keyframes scale1{
   0%,100%{ transform:scaleY(.95); 
    }

    50%{ transform:scaleY(1);
     }
    }

    

    </style>
    <filter id="AI_GaussianBlur_7" name="AI_GaussianBlur_7">
      <feGaussianBlur stdDeviation="7"/>
    </filter>
    <filter id="AI_GaussianBlur_4" name="AI_GaussianBlur_4">
      <feGaussianBlur stdDeviation="4"/>
    </filter>
  </defs>
  <g id="neonKK">
    <g id="light">
      <g class="cls-1">
        <path class="cls-2" d="M98.17,200.66,91,190.26c-3.15-4.58-6.32-9.13-9.44-13.56a26.55,26.55,0,0,1-6.44,11.73c-5.79,6.11-14,9.2-24.32,9.2-1.6,0-3.09-.07-4.34-.16l-1,0a27.87,27.87,0,0,1-20.9-9.29c-8.39-9.28-9.11-22.25-8.62-30L14.1,117.46v-.23C12.65,55.16,14,50.13,15,46.8,18.29,34.78,29.23,27,42.83,27c7.82,0,15.82,2.42,18.9,3.46l15.84,5.37c4.43-4,11.45-7.77,22.06-7.77a57.33,57.33,0,0,1,13.7,1.85c1.12.28,2.14.51,3.06.72,5.68,1.27,18.81,4.22,23.67,18.06,5,14.14-3.9,25.21-7.23,29.38l-1.4,1.74-29.51,25.3c4.3,5,9,10.63,13.73,16.26,8.63,10.36,15.42,18.82,20.16,25.14,4.92,6.56,8.15,11.28,10.12,16,4.22,10.08,2.35,20.49-5,27.83-9,9-22.73,10.32-30.13,10.32Z"/>
      </g>
      <g class="cls-1">
        <path class="cls-2" d="M654.55,207.25l-7.15-10.41c-3.14-4.57-6.31-9.13-9.44-13.56A26.48,26.48,0,0,1,631.53,195c-5.79,6.11-14,9.21-24.32,9.21-1.61,0-3.1-.07-4.34-.17-.33,0-.67,0-1,0A27.83,27.83,0,0,1,581,194.78c-8.4-9.27-9.12-22.24-8.62-30L570.49,124v-.22c-1.45-62.07-.06-67.1.86-70.43,3.33-12,14.27-19.8,27.88-19.8,7.82,0,15.82,2.42,18.89,3.47L634,42.42c4.43-4,11.45-7.76,22.06-7.76a56.82,56.82,0,0,1,13.69,1.85c1.14.28,2.18.51,3.1.72,5.64,1.27,18.77,4.21,23.63,18.06,5,14.13-3.89,25.2-7.23,29.37l-1.39,1.75-29.52,25.3c4.31,5,9.05,10.62,13.74,16.26,8.63,10.35,15.41,18.81,20.16,25.14,4.91,6.56,8.15,11.28,10.12,16,4.21,10.08,2.35,20.48-5,27.83-9,9-22.74,10.32-30.14,10.32Z"/>
      </g>
      <g class="cls-1">
        <path class="cls-2" d="M155.23,197.92a34.68,34.68,0,0,1-21.36-7.17l-8.31-6.39-1-10.43c-.48-5.17-2.94-32.32-4.61-59.73-3.2-52.42-1-63.32,1.26-69.42l2.23-6,4.88-4.07c2.47-2,11.45-8.77,23.32-8.77,12.06,0,22.64,6.78,28.32,18.13l2.53,5.07v5.59c.08,4.55,2.59,63,4.92,115.89l.64,14.55-12.62,7.29A41.84,41.84,0,0,1,155.23,197.92Z"/>
      </g>
      <g class="cls-1 letraL">
        <path class="cls-2" d="M238.46,196.46c-10.36,0-21.48-.38-28.13-.6-1.74-.06-3.18-.12-3.92-.13s-1.21,0-1.78,0c-11.11,0-20.39-5.78-25.45-15.87-3.26-6.47-4.36-14.05-5-20.6-1.72-17.17-6.47-107.58-6.67-111.42l-.72-13.68,11.41-7.58A38.76,38.76,0,0,1,199,20.33a33.57,33.57,0,0,1,21.88,8.1l7.56,6.5,6.7,92.27a73.4,73.4,0,0,1,13.39-1.41,39.34,39.34,0,0,1,22,6.13l5,3.3,2.87,5.25c3.61,6.63,11.2,23.69,3.57,38.9a29.8,29.8,0,0,1-22.89,16.11A153.77,153.77,0,0,1,238.46,196.46Z"/>
      </g>
      <g class="cls-1">
        <path class="cls-2" d="M315.48,194.51a250.38,250.38,0,0,1-35.24-2.32l-7.92-1.13-5.66-5.66c-8-8-13.15-21-15.62-63.51-1.19-20.32-1.28-40.07-1.28-45.64,0-1-.29-4.24-.48-6.4-1.48-17-2.75-31.59,7.51-41.84,9.58-9.58,21.71-10.33,25.2-10.33,13.41,0,24.52,6.19,29.7,16.56,5,10,5.83,35.19,5.83,35.43,0,25.79.26,47.16.6,59.69,4.48-.5,8.51-.89,11-1.13a33.82,33.82,0,0,1,6.59-.67,28,28,0,0,1,25.37,15.32c5.61,11.13,8.26,28.13-2.85,39.23-1.21,1.21-12.14,11.74-26.38,12l-.73,0C328.42,194.24,322.86,194.51,315.48,194.51Z"/>
      </g>
      <g class="cls-1">
      <path class="cls-2" d="M423.79,198c-9.09,0-45.26-1.65-57.67-2.23h-.61c-15,0-26.13-11.52-28.32-29.34L337,165V61.44c0-18.74,14.18-32.34,33.72-32.34,1,0,1.95,0,2.9.11,53.91,0,59.05,1.74,62.45,2.87,9.63,3.21,20.39,13.25,19,31a47.81,47.81,0,0,1-2.18,10.87l-3.81,11.41-.87.29c6.67,9.45,5,20.27,4.24,25l0,.22c-.81,14.14-11.16,24.47-25.43,25.53,10.05,1.35,20.39,8.6,23.16,22.95,1.89,9.78,1,30.07-15.76,36.81A27,27,0,0,1,423.79,198ZM401,136.8c4.56-.09,9.14-.23,12.88-.35-5.13,0-9.36,0-12.88-.08Z"/>
      </g>
      <g class="cls-1">
      <path class="cls-2" d="M759.59,198c-9.09,0-45.26-1.65-57.66-2.23h-.62c-15,0-26.11-11.52-28.32-29.33l-.18-1.47V61.44c0-18.74,14.18-32.34,33.72-32.34,1,0,2,0,2.91.11,53.89,0,59,1.74,62.45,2.87C788,37.43,795,55.05,788.72,74l-3.8,11.39-.87.29c6.66,9.45,5,20.26,4.24,25,0,.08,0,.15,0,.23-.8,14.14-11.15,24.47-25.43,25.53,10,1.35,20.39,8.6,23.17,22.95,1.89,9.78,1,30.07-15.76,36.81A27,27,0,0,1,759.59,198ZM736.85,136.8c4.55-.09,9.14-.23,12.88-.35-5.13,0-9.37,0-12.88-.08Z"/>
      </g>
      <g class="cls-1">
        <path class="cls-2" d="M466.58,203a88.12,88.12,0,0,1-12.14-1l-17.29-2.69-2.73-17.27c-5.26-33.3,2.23-115.29,3.1-124.52l.43-4.48,2-4c2-3.95,8.26-13.58,23.87-17.48a54.79,54.79,0,0,1,13.32-1.41c12.27,0,28.16,2.71,34.94,3.87l.14,0c.89.16,1.57.28,2,.34l4.63.66,4,2.36c11,6.43,29.94,19.93,33,38.19,2.7,16.16-3.55,40-18.33,50.21q-1.56,1.09-3.86,2.4c4.77,6.16,11,14.31,19.27,25.13l2.63,3.47,1.25,4.17c3.66,12.23,1.47,23.53-6,31-8,8-19.11,8.67-28.89,8.67-14.49,0-21.73-11.35-25.61-17.44-.34-.53-.75-1.18-1.05-1.62a16.4,16.4,0,0,0,1.26,1.54h0c-.44-.5-1-1.17-1.62-2-1.38,7.27-4,12-9.43,16.14C478.83,202.45,471.51,203,466.58,203Z"/>
      </g>
      <g class="cls-1 letraB">
        <path class="cls-2" d="M812.51,194.49c-11.21,0-28.15,0-35.81-15.33l-2.54-5.06V62.81c-.72-14.05,8.88-30.18,28.74-33.4a143.11,143.11,0,0,1,21.73-1.86c11,0,19.64,1.76,26.5,5.36,14.34,7.54,22.72,20,25.77,29.16,3.93,11.81,2.57,24.17-3.29,33.81,7.91,7.91,17.35,20.5,17.68,34,.06.46.19,1.25.28,1.81.77,4.68,2,12.5.24,21.39-2.46,12.1-9.75,21.83-21.09,28.13-15.4,8.56-29.29,12.9-41.28,12.9-.54,0-2.42.07-3.79.11-3.53.13-8.35.3-13.14.3Z"/>
      </g>
      <g class="cls-1">
        <path class="cls-2" d="M1028.86,191.2c-11.21,0-28.16,0-35.82-15.33l-2.53-5.06V59.51c-.72-14,8.88-30.17,28.74-33.39A141.81,141.81,0,0,1,1041,24.26c11,0,19.64,1.75,26.5,5.36,14.34,7.54,22.71,20,25.77,29.16,3.93,11.81,2.57,24.17-3.29,33.81,7.9,7.9,17.35,20.49,17.68,34,.06.46.19,1.25.28,1.81.77,4.68,2,12.5.24,21.38-2.46,12.11-9.75,21.84-21.09,28.14-15.4,8.56-29.29,12.9-41.28,12.9-.54,0-2.42.06-3.79.11C1038.46,191,1033.64,191.2,1028.86,191.2Z"/>
      </g>
      <g class="cls-1">
        <path class="cls-2" d="M894.15,197.17c-1.77,0-7.18,0-20.19-2.94a25.46,25.46,0,0,1-18.39-33.3c5.24-14.88,48.8-100.45,57.53-117.55a24.2,24.2,0,0,1,2.2-3.56c7.67-10.44,16-15.53,25.58-15.56,5.46,0,15.55,1.78,22.33,13.69,2.31,4,4.16,9,6.95,16.7.4,1.11,1.09,3,1.48,4.05,3.09,5.48,8.78,17.27,21.14,45.54,19.6,44.79,20.38,49.86,20.76,52.3A29.3,29.3,0,0,1,1008,178.8c-7.38,9.79-18.65,12.61-24.83,13.42a36,36,0,0,1-4.95.31c-.8,0-1.69,0-2.68-.05-.68,0-1.4,0-2.18,0-9.94,0-19.16-5.24-26-14.77a25.15,25.15,0,0,1-3.76-7.82c-1.63-5.67-3.36-11.68-4.81-16.62-2.67.05-5.42.08-7.94.08h-.06c-4.44,10.28-10.75,25.35-11.6,27.58C917.8,184.68,911.77,197.17,894.15,197.17Z"/>
      </g>
    </g>
    <g id="shadow" class="cls-4">
      <path class="cls-5" d="M102,190.25l-1.79-2.6C87.89,169.73,67.34,141,58.74,131.37c-.08,13.16-.2,42.26,0,46a8.38,8.38,0,0,1-2.3,6.29c-2.29,2.42-6,3.59-11.25,3.59-1.71,0-3.22-.12-4.13-.21-.41,0-.81.06-1.21.06h0a10.05,10.05,0,0,1-7.55-3.36c-4.55-5-4.23-14.31-3.94-17.71l-1.91-41.7c-.52-22.15-1.18-60.07.22-65.11.55-2,2.67-6.6,10.52-6.6,5.56,0,12.37,2.26,13.13,2.52l4.22,1.42L54.4,61c-.09,2.6-.83,24.38-2.38,32.77a9.78,9.78,0,0,0,1.15.27l28.9-35C83.34,57,86.53,53.66,94,53.66A39.09,39.09,0,0,1,103.32,55c1.31.33,2.5.59,3.56.83,4.63,1,9,2,10.56,6.45,1.65,4.72-1.79,9-4.3,12.16l-.36.44L70.86,110.79c5.41,6.22,15.51,17.91,25.33,29.7,8.43,10.11,15,18.33,19.58,24.42,6.74,9,11.61,15.48,6.8,20.29s-14.51,5.05-17.41,5.05Z"/>
      <path class="cls-5" d="M658.39,196.83l-1.79-2.6c-12.32-17.92-32.88-46.7-41.48-56.27-.07,13.15-.2,42.25,0,46a8.4,8.4,0,0,1-2.3,6.29c-2.28,2.41-6,3.58-11.25,3.58-1.7,0-3.21-.12-4.13-.21-.41,0-.81.07-1.2.07h0a10.13,10.13,0,0,1-7.55-3.37c-4.54-5-4.23-14.31-3.93-17.7l-1.91-41.7c-.52-22.16-1.18-60.08.21-65.12.55-2,2.68-6.59,10.53-6.59,5.55,0,12.37,2.25,13.13,2.51l4.21,1.43-.14,4.45c-.08,2.6-.83,24.37-2.38,32.77.34.1.74.19,1.16.27l28.9-35c1.27-2.1,4.46-5.39,11.92-5.39a39.17,39.17,0,0,1,9.33,1.31c1.31.33,2.5.6,3.56.83,4.63,1,9,2,10.55,6.45,1.66,4.72-1.79,9-4.3,12.17l-.35.44-41.93,35.93c5.41,6.22,15.51,17.92,25.33,29.7,8.43,10.12,15,18.33,19.59,24.42,6.74,9,11.61,15.48,6.79,20.29s-14.51,5.05-17.41,5.05Z"/>
      <path class="cls-5" d="M149.59,187.5a16.85,16.85,0,0,1-10.39-3.43l-2.08-1.6-.24-2.61C135.24,162,127.3,72.44,132.46,58.68L133,57.2l1.22-1c.92-.77,5.83-4.61,11.8-4.61,3,0,8.66,1.07,12.22,8.18L158.9,61v1.42c0,3.94,3.56,85.51,4.93,116.6l.16,3.64-3.16,1.83A24.54,24.54,0,0,1,149.59,187.5Z"/>
      <path class="cls-5 letraL" d="M232.82,186c-10,0-21-.37-27.52-.59-2.22-.08-4.14-.14-4.67-.14l-.57,0c-.36,0-.71,0-1.07,0-9.72,0-11.53-10-12.56-20.27-1.64-16.41-6.4-106.73-6.6-110.57l-.18-3.42,2.85-1.89a21.26,21.26,0,0,1,10.84-3.29,15.31,15.31,0,0,1,10.14,3.74l1.89,1.62,7.44,102.47c1.85.05,4,.08,6.13.08,3.21,0,5.72-.08,7.46-.25,1.06-.1,2.64-.4,4.32-.72a65.78,65.78,0,0,1,12.15-1.48c4.9,0,8.85,1,12.09,3.16l1.25.83.72,1.31c1.76,3.23,7.21,14.38,3.28,22.21a11.91,11.91,0,0,1-9.35,6.36A142.54,142.54,0,0,1,232.82,186Z"/>
      <path class="cls-5" d="M309.84,184.09A233.92,233.92,0,0,1,277.15,182l-2-.29-1.41-1.41c-3.65-3.64-8.12-12.83-10.39-51.84-1.16-19.82-1.25-39.14-1.25-44.58,0-1.63-.26-4.72-.55-8-1.37-15.77-1.59-23.63,2.31-27.53,4.91-4.91,11.71-5,12.47-5,1.72,0,10.46.32,13.6,6.6,2.56,5.13,3.93,25.29,3.93,27.38,0,32.89.45,68.33,1.31,73.7a20.2,20.2,0,0,1,1.05,3.91,18.59,18.59,0,0,0,.5,2.19H297a8.45,8.45,0,0,0,1.39-.13c9.13-1.52,24.72-3,27.88-3.3a15.92,15.92,0,0,1,3.77-.49,9.88,9.88,0,0,1,9.27,5.38c.07.13,6.26,12.71.53,18.45-2.19,2.18-8.51,6.69-14.12,6.69l-1.14.06C322.07,183.84,316.8,184.09,309.84,184.09Z"/>
      <path class="cls-5" d="M418.15,187.58c-9.38,0-52.23-2-57.63-2.25l-.65,0h0c-5.5,0-9.41-5.06-10.46-13.54l0-.36V69c0-8.71,6.17-14.33,15.72-14.33a21,21,0,0,1,2.14.1c19.47,0,52.45.26,57.53,2,2.26.76,7.45,3.49,6.76,12.53a31.26,31.26,0,0,1-1.32,6.59l-.95,2.84-2.85,1a25.48,25.48,0,0,1-7.64,1,33.57,33.57,0,0,1-7.61-.89c-.58-.13-3.14-.57-11.89-.57-7,0-15.14.28-20.28.49l-1.11,12.19c.42,3,.88,6.31,1.19,8.93l35.29-1.6s.61,0,1.52,0c5.74,0,9.43,1.22,11.61,3.84,3,3.57,2.16,8.7,1.58,12.45-.08.48-.18,1.14-.2,1.39-.07,4.47-2.71,9.22-9.93,9.22l-1.47,0c-.39,0-.79,0-1.19,0-9.34,0-31.3,0-36-.53a8.8,8.8,0,0,0-2.48,1.84c-.48,13.5-.5,28.72.21,35,1.5.07,3.79.14,7.28.14,7.86,0,18.15-.32,25-.53,3.78-.12,6.51-.2,7.73-.2,3.52,0,7.73,2.25,8.95,8.59,0,.14,2.09,13.93-4.79,16.69A9.83,9.83,0,0,1,418.15,187.58Z"/>
      <path class="cls-5" d="M754,187.58c-9.38,0-52.24-2-57.64-2.25l-.65,0h0c-5.5,0-9.4-5.06-10.45-13.54l-.05-.36V69c0-8.71,6.17-14.33,15.73-14.33a21,21,0,0,1,2.13.1c19.47,0,52.46.26,57.53,2,2.26.76,7.46,3.49,6.76,12.53A29.92,29.92,0,0,1,766,75.86l-1,2.84-2.84,1a25.58,25.58,0,0,1-7.65,1,33.41,33.41,0,0,1-7.6-.89c-.58-.13-3.14-.57-11.89-.57-7,0-15.14.28-20.29.49l-1.11,12.19c.43,3,.88,6.31,1.2,8.93l35.28-1.6s.61,0,1.52,0c5.75,0,9.44,1.22,11.61,3.84,3,3.57,2.16,8.7,1.58,12.45-.07.48-.18,1.14-.2,1.39-.07,4.47-2.71,9.22-9.92,9.22l-1.48,0c-.39,0-.78,0-1.18,0-9.34,0-31.3,0-36.05-.53a8.66,8.66,0,0,0-2.48,1.84c-.48,13.5-.5,28.72.21,35,1.49.07,3.79.14,7.27.14,7.87,0,18.15-.32,25-.53,3.78-.12,6.51-.2,7.74-.2,3.52,0,7.72,2.25,8.95,8.59,0,.14,2.09,13.93-4.79,16.69A9.85,9.85,0,0,1,754,187.58Z"/>
      <path class="cls-5" d="M460.94,192.63a71.74,71.74,0,0,1-9.38-.81l-4.32-.67-.68-4.32c-5-31.66,2.91-116.43,3.25-120l.1-1.12.5-1c.49-1,3.33-5.87,12.15-8.08a38,38,0,0,1,8.95-.87c10.75,0,25.58,2.54,31.91,3.62,1.21.2,2.1.36,2.59.43l1.16.16,1,.6c3.7,2.16,22.28,13.55,24.29,25.59,1.92,11.49-3.35,27.27-10.84,32.47-4.41,3.06-16.43,8.53-21.65,10.86,4.76,5.3,28.19,36,33,42.35l.66.87.32,1.05c1,3.33,2.13,9.47-1.51,13.1-2.1,2.11-5.54,3.41-16.16,3.41-4.62,0-7.32-4.23-10.44-9.13-.56-.88-1.4-2.21-1.73-2.6-2.8-3-20.44-29-22.36-32.61-1-1.44-5.08-5-8.46-7.53-.12,48.9-1.86,50.25-4.46,52.26C467,192,464.68,192.63,460.94,192.63Zm11.13-84.79c2.94.29,6.82.57,10.86.57,8.27,0,12.69-1.14,14.93-2.11,7.89-3.38,7.89-5.13,7.89-10.94,0-7.06-2.15-10.66-7.42-12.42a56,56,0,0,0-18.25-3.27,54.54,54.54,0,0,0-7,.47Z"/>
      <path class="cls-5 letraB" d="M805.94,184.07c-13.05,0-17.66-1.25-19.72-5.37l-.63-1.27V69.81c-.45-5.26,2.74-13.28,13.62-15.05a124.89,124.89,0,0,1,18.85-1.62c8,0,13.9,1.08,18.12,3.29,9.63,5.06,15.21,13.36,17.07,18.92,2.19,6.59,2.19,16.53-5,22.87-4.54,4-4.54,4.75-4.54,7s0,2.56,4.7,5.82c5.4,3.73,18.34,16.84,18.34,27.11a32.46,32.46,0,0,0,.51,4c1.27,7.79,3.64,22.29-11.82,30.88-15.82,8.79-26.43,10.63-32.55,10.63-.85,0-2.51.06-4.44.13C815,183.91,810.39,184.07,805.94,184.07Zm3.17-23.38c13.86-.94,26.58-3.72,28.82-6.53,3.7-4.63,4-12.49,3.76-16-1.31-2.46-5.9-10.18-12.23-10.29l-1.72,0c-8.31,0-13.45,1.19-18.63,3.41Zm-.26-56c6.4-.64,13.69-2.27,16.15-5,5.54-6.13,6.18-13.13,5.29-16.1s-4.54-8.27-10.29-9.15a27.42,27.42,0,0,0-4.24-.32,31.16,31.16,0,0,0-8.12,1.12Z"/>
      <path class="cls-5" d="M1023.22,180.78c-13.05,0-17.66-1.25-19.71-5.37l-.64-1.27V66.52c-.45-5.26,2.74-13.29,13.62-15a123.71,123.71,0,0,1,18.85-1.62c8,0,13.91,1.07,18.12,3.29,9.63,5.06,15.22,13.36,17.07,18.92,2.2,6.59,2.2,16.53-5,22.87-4.55,4-4.55,4.75-4.55,7s0,2.56,4.71,5.81c5.4,3.74,18.34,16.85,18.34,27.11a32.35,32.35,0,0,0,.51,4c1.27,7.79,3.64,22.29-11.83,30.88-15.81,8.79-26.43,10.63-32.54,10.63-.85,0-2.52.06-4.44.13-3.39.12-8,.28-12.49.28Zm3.18-23.39c13.86-.94,26.57-3.72,28.82-6.52,3.68-4.61,4-12.37,3.75-16-1.31-2.47-5.9-10.17-12.22-10.28l-1.72,0c-8.32,0-13.46,1.19-18.63,3.41Zm-.26-56c6.39-.64,13.68-2.28,16.14-5,5.54-6.13,6.19-13.13,5.29-16.1S1043,72,1037.29,71.15a27.43,27.43,0,0,0-4.24-.33,31,31,0,0,0-8.12,1.13Z"/>
      <path class="cls-5" d="M888.52,186.75c-4.51,0-12.1-1.56-16.22-2.5a7.46,7.46,0,0,1-5.4-9.75c4.88-13.82,51.33-105,56.61-115.39a8,8,0,0,1,.59-1c5.42-7.35,8.82-8.29,11.19-8.29,5.6,0,7.56,5.41,12.3,18.5.82,2.28,1.85,5.11,2.19,5.79a4.69,4.69,0,0,0-.7-1c3.87,4.18,39.92,86.49,41,93.69a11.23,11.23,0,0,1-2.13,8.68c-3.58,4.77-10.2,6.07-12.88,6.41a17.45,17.45,0,0,1-2.52.15h0c-.64,0-1.35,0-2.13,0s-1.73,0-2.73,0c-5.35,0-9.38-4.54-11.32-7.24a7.34,7.34,0,0,1-1.1-2.29c-.27-.92-6.53-22.82-8.09-27.5a4.78,4.78,0,0,0-2.17-2.46l-2.76.07c-4.25.1-11.36.28-17,.28-7.2,0-8.94-.28-10-.55-.41-.1-.75-.17-1-.21a12.79,12.79,0,0,1-.94,1.28c-2.28,4.4-15.43,35.72-16.56,38.74C896,184.24,893.88,186.75,888.52,186.75ZM919,122.07c3.86,0,8.7.06,13.18.06,4.91,0,8.5,0,10.71-.1a17.24,17.24,0,0,0,.19-6.2c-3.07-9-7.2-19.32-10.11-24.81C926.67,103.7,921.46,115.36,919,122.07Z"/>
    </g>
    <g id="base">
      <path class="cls-6" d="M108.69,180.66l-1.19-1.73c-10-14.52-37.43-53.48-44.42-59.27-.3-.25-.57-.46-.8-.63a13.06,13.06,0,0,0,.08,2.29l0,.28v.28c-.09,14.93-.21,44.17,0,48a6.41,6.41,0,0,1-1.75,4.8c-1.89,2-5.1,3-9.81,3a40.21,40.21,0,0,1-4.14-.22,9.64,9.64,0,0,1-1.19.08h0a8,8,0,0,1-6.07-2.71C35.28,170.21,35.78,161,36,158.46l-1.92-41.7c-.32-13.93-1.27-59.51.14-64.62.53-1.92,2.36-5.13,8.6-5.13,5.23,0,11.76,2.16,12.49,2.41l2.81.95-.1,3c-.08,2.74-.91,27-2.61,33.77,0,.08,0,.14,0,.19.49.5,2.26,1.06,4.25,1.3l29.7-35.95c.93-1.65,3.55-4.57,10.3-4.57a37.14,37.14,0,0,1,8.84,1.25c1.33.34,2.54.61,3.61.85,4.43,1,7.92,1.78,9.11,5.16s-1.1,6.65-4,10.25l-.23.29L73.67,103c4.92,5.65,15.94,18.37,26.62,31.18,8.41,10.09,15,18.28,19.52,24.34,8.06,10.75,10.07,14.59,7,17.68-4.24,4.25-14.07,4.46-16,4.46Z"/>
      <path class="cls-6" d="M665.08,187.25l-1.19-1.74c-10-14.52-37.43-53.48-44.42-59.26q-.45-.37-.81-.63a13,13,0,0,0,.08,2.28l0,.28v.28c-.1,14.93-.22,44.18,0,48a6.41,6.41,0,0,1-1.75,4.81c-1.89,2-5.1,3-9.8,3a39.59,39.59,0,0,1-4.14-.23,9.94,9.94,0,0,1-1.2.08h0a8,8,0,0,1-6.07-2.71c-4.13-4.56-3.63-13.82-3.41-16.31l-1.91-41.7c-.33-13.94-1.28-59.52.14-64.63.53-1.91,2.35-5.13,8.6-5.13,5.23,0,11.76,2.16,12.48,2.41l2.82,1-.1,3c-.09,2.74-.92,27-2.62,33.76a.89.89,0,0,0,0,.19c.48.5,2.26,1.07,4.24,1.31l29.7-36c.94-1.65,3.55-4.57,10.31-4.57a37.14,37.14,0,0,1,8.84,1.25c1.33.33,2.53.6,3.61.84,4.42,1,7.92,1.78,9.1,5.16s-1.09,6.65-4,10.25l-.24.3-43.31,37.12C635,115.24,646,128,656.67,140.77c8.41,10.09,15,18.27,19.52,24.34,8.06,10.74,10.08,14.58,7,17.67-4.25,4.25-14.07,4.47-16,4.47Z"/>
      <path class="cls-6" d="M155.23,177.92a14.71,14.71,0,0,1-9.17-3l-1.39-1.07-.16-1.74c-1-10.87-9.65-106.66-4.54-120.29l.38-1,.81-.68c.51-.42,5.12-4.14,10.52-4.14,2.57,0,7.35.92,10.43,7.07l.42.85v.94c0,3.84,3.23,78,4.94,116.7l.11,2.42-2.11,1.22A22.21,22.21,0,0,1,155.23,177.92Z"/>
      <path class="cls-6" d="M238.46,176.46c-10,0-20.93-.37-27.45-.59-2.34-.08-4.18-.15-4.74-.15l-.66,0c-.33,0-.65,0-1,0-7.3,0-9.4-6.77-10.57-18.46-1.64-16.37-6.4-106.64-6.6-110.48l-.12-2.28,1.9-1.26a19.19,19.19,0,0,1,9.74-3,13.35,13.35,0,0,1,8.83,3.26l1.26,1.08,7.52,103.44c2.17.07,5.09.14,8,.14,3.28,0,5.85-.09,7.66-.26,1.15-.11,2.78-.42,4.5-.75a64.63,64.63,0,0,1,11.78-1.45c4.49,0,8.09.93,11,2.84l.83.55.48.88c1.17,2.14,6.83,13.21,3.25,20.35-1,2-3.21,4.61-7.84,5.27A139.88,139.88,0,0,1,238.46,176.46Z"/>
      <path class="cls-6" d="M315.48,174.51a231.38,231.38,0,0,1-32.41-2.12l-1.32-.19-.94-.94c-3.13-3.13-7.55-11.77-9.81-50.54-1.15-19.77-1.24-39-1.24-44.47,0-1.71-.27-4.84-.56-8.16-1.37-15.71-1.43-22.78,1.73-25.94A16.72,16.72,0,0,1,282,37.68c1.51,0,9.19.27,11.81,5.51,2.26,4.51,3.72,24,3.72,26.48,0,33.69.47,69.73,1.38,74.26a17,17,0,0,1,1,3.73c.73,3.82,1.08,3.82,2.75,3.82a11.45,11.45,0,0,0,1.72-.16c9.23-1.54,25.14-3,27.89-3.3a14,14,0,0,1,3.43-.46,8,8,0,0,1,7.48,4.27c.06.11,5.48,11.56.9,16.14-1.91,1.91-7.77,6.11-12.7,6.11l-1.24,0C327.63,174.25,322.39,174.51,315.48,174.51Z"/>
      <path class="cls-6" d="M423.79,178c-9.42,0-52.91-2-57.68-2.25l-.6,0h0c-6.5,0-8.12-9-8.46-11.79l0-.24V61.44c0-7.61,5.25-12.34,13.72-12.34a17.37,17.37,0,0,1,2,.11c12.4,0,51.87.14,57,1.85,1.82.6,6,2.84,5.4,10.48a28.39,28.39,0,0,1-1.22,6.1l-.64,1.9-1.89.63a23.84,23.84,0,0,1-7,.94,31.88,31.88,0,0,1-7.16-.84c-1-.24-3.94-.63-12.34-.63-7.92,0-17.2.35-22.12.57l-1.29,14.17c.4,2.78,1.09,7.75,1.43,10.85.36,0,.74.06,1.05.07l36.11-1.65s.57,0,1.43,0c5,0,8.32,1,10.07,3.12,2.38,2.88,1.69,7.31,1.14,10.87-.09.58-.22,1.37-.22,1.61,0,2.19-.84,7.3-7.93,7.3l-1.41,0-1.25,0c-9.47,0-32-.06-36.05-.54h0c-1.07,0-3,1.45-4.44,3-.56,15.14-.53,32.42.42,37.75,1.37.12,4,.25,9,.25,7.9,0,18.2-.32,25-.53,3.77-.11,6.49-.2,7.68-.2s5.73.51,7,7c.37,1.87,1.25,12.52-3.57,14.45A8,8,0,0,1,423.79,178Z"/>
      <path class="cls-6" d="M759.59,178c-9.41,0-52.9-2-57.67-2.25-.2,0-.41,0-.61,0h0c-6.51,0-8.13-9-8.47-11.78l0-.25V61.44c0-7.61,5.26-12.34,13.72-12.34a17.23,17.23,0,0,1,2,.11c12.4,0,51.88.14,57,1.85,6.44,2.15,6.27,10.27,4.17,16.58l-.63,1.9-1.9.63a23.77,23.77,0,0,1-7,.94,31.8,31.8,0,0,1-7.15-.84c-1-.24-3.94-.63-12.35-.63-7.92,0-17.2.35-22.11.57L717.3,84.38c.39,2.78,1.09,7.75,1.42,10.85.35,0,.73.06,1.06.07l36.11-1.65s.57,0,1.42,0c5,0,8.33,1,10.07,3.12,2.39,2.88,1.7,7.31,1.14,10.87-.09.58-.21,1.37-.22,1.61,0,2.19-.83,7.3-7.93,7.3l-1.4,0-1.25,0c-9.48,0-32-.06-36.06-.54h0c-1.07,0-3,1.45-4.44,3-.57,15.14-.54,32.42.42,37.75,1.37.12,4,.25,9,.25,7.89,0,18.2-.32,25-.53,3.76-.11,6.48-.2,7.67-.2s5.74.51,7,7c.36,1.87,1.25,12.52-3.57,14.45A8,8,0,0,1,759.59,178Z"/>
      <path class="cls-6" d="M466.58,183a69.62,69.62,0,0,1-9.07-.78l-2.88-.45-.46-2.88c-5-31.41,2.93-115.93,3.27-119.52l.07-.74.33-.67c.41-.82,2.87-5,10.84-7a35.54,35.54,0,0,1,8.47-.81c10.57,0,25.29,2.51,31.57,3.58,1.23.22,2.15.37,2.65.44l.77.11.68.4C515,56,534.25,67.49,536.15,78.88c1.77,10.66-3.19,25.76-10,30.5-4.59,3.18-17.86,9.15-22.31,11.12-.31.75-.59,1.79-.08,2.31,3.39,3.38,30.23,38.63,33.28,42.64l.44.58.21.69c.87,2.91,1.9,8.22-1,11.13-1.69,1.69-4.84,2.81-14.74,2.81-3.52,0-5.83-3.62-8.75-8.2a34.36,34.36,0,0,0-1.93-2.86c-2-2-20.42-28.88-22.13-32.3-1.08-1.89-8.51-8.09-12.18-10.32,0,3.82-.05,14.5-.27,25.07-.56,27.22-1.58,28-3.41,29.42C471.84,182.57,469.84,183,466.58,183Zm9.06-81a118.59,118.59,0,0,0,12.93.78c6.81,0,12.25-.79,15.72-2.27,9.1-3.9,9.1-6.69,9.1-12.79,0-7.87-2.71-12.28-8.79-14.31a57.84,57.84,0,0,0-18.88-3.37,56.83,56.83,0,0,0-9,.73Z"/>
      <path class="cls-6" d="M811.57,174.49c-12,0-16.31-1-17.92-4.27l-.43-.84V62.14c-.43-4.49,2.36-11.43,11.94-13a122.86,122.86,0,0,1,18.53-1.6c7.54,0,13.33,1,17.19,3.07C850,55.4,855.25,63.19,857,68.4c2,6,2,15-4.45,20.73-4.71,4.14-5.22,5.39-5.22,8.52,0,2.91,0,3.6,5.56,7.46,6.1,4.22,17.48,16.69,17.48,25.46a31.82,31.82,0,0,0,.54,4.32c1.19,7.3,3.41,20.9-10.83,28.81-15.44,8.58-25.69,10.38-31.57,10.38-.88,0-2.56.06-4.51.13-3.37.12-8,.28-12.41.28Zm1.18-19.27c12.65-.7,29-3.2,32.38-7.39,4.71-5.89,4.34-15.36,4.15-17.82-1.18-2.32-6.32-11.56-14.14-11.7h-1.76c-9.31,0-14.79,1.43-20.63,4.11Zm-.17-55.95c7-.48,16.27-2.21,19.54-5.82,5.49-6.08,7-13.66,5.72-18s-6-9.64-11.9-10.55a30.08,30.08,0,0,0-4.54-.35,34.16,34.16,0,0,0-10.18,1.64Z"/>
      <path class="cls-6" d="M1028.86,171.2c-12,0-16.31-1-17.93-4.27l-.42-.85V58.85c-.43-4.49,2.35-11.44,11.94-13a121.54,121.54,0,0,1,18.53-1.6c7.54,0,13.33,1,17.19,3.06,9.1,4.79,14.36,12.58,16.1,17.79,2,6,2,15-4.44,20.73-4.72,4.14-5.23,5.38-5.23,8.52,0,2.91,0,3.6,5.57,7.45,6.1,4.23,17.48,16.7,17.48,25.47a33.42,33.42,0,0,0,.53,4.32c1.2,7.3,3.41,20.9-10.82,28.81-15.44,8.58-25.69,10.38-31.57,10.38-.89,0-2.57.06-4.51.12-3.38.12-8,.29-12.42.29Zm1.17-19.27c12.65-.7,29-3.2,32.39-7.4,4.71-5.88,4.33-15.35,4.14-17.81-1.17-2.32-6.32-11.56-14.14-11.7h-1.75c-9.31,0-14.8,1.43-20.64,4.11ZM1029.87,96c7-.48,16.26-2.21,19.53-5.83,5.49-6.07,7-13.66,5.73-18s-6-9.64-11.9-10.55a30.11,30.11,0,0,0-4.55-.35,34.14,34.14,0,0,0-10.17,1.64Z"/>
      <path class="cls-6" d="M894.15,177.17c-4.31,0-11.73-1.54-15.77-2.45A5.5,5.5,0,0,1,874.8,172a5.41,5.41,0,0,1-.37-4.45c5-14.15,54.4-111,56.5-115.15a6,6,0,0,1,.46-.74c5.46-7.42,8.43-7.43,9.54-7.43,4,0,5.59,3.85,10.42,17.19.87,2.4,1.94,5.37,2.29,6a2.71,2.71,0,0,0-.39-.53c3.53,3.82,39.51,86.07,40.52,92.64a9.3,9.3,0,0,1-1.75,7.18c-3.13,4.16-9.12,5.32-11.54,5.63a15.73,15.73,0,0,1-2.26.13h0c-.62,0-1.31,0-2.07,0s-1.77-.06-2.79-.06c-4.46,0-8-4-9.69-6.4a5.29,5.29,0,0,1-.81-1.67c-.27-.93-6.54-22.86-8.11-27.58a7,7,0,0,0-3.59-3.85l-3.29.08c-4.24.11-11.34.29-17,.29-6.63,0-8.5-.24-9.52-.49a8.76,8.76,0,0,0-2.14-.33,1.71,1.71,0,0,0-.4,0c-.11.13-.29.42-.44.64a12.69,12.69,0,0,1-1.12,1.54c-2,3.72-15.57,36-16.76,39.17S895.42,177.17,894.15,177.17Zm27.71-60.71c4.1,0,10.32.08,16,.08,5.49,0,9.35,0,11.47-.12.4,0,.47-.11.58-.24,1.15-1.4,1.2-5.66.81-8.4-3.77-11.12-9-23.8-12-28.15a6.48,6.48,0,0,0-1.26,1.7C929.89,96.42,923.87,110.09,921.86,116.46Z"/>
    </g>
    <g id="tube">
      <path class="cls-7" d="M46.6,173.37s12,1.65,11.79-3.29,0-48.23,0-48.23-1.7-12.68,7.24-5.27,45.17,60.08,45.17,60.08,9.87,0,13.17-3.29-56-70.78-56-70.78l46.09-39.51c6.58-8.23,3.24-7.42-6.59-9.87-13.16-3.3-14.81,1.64-14.81,1.64L61.41,92.71s-11.52,0-9.87-6.58S54,53.21,54,53.21s-14.58-4.94-15.95,0,0,63.37,0,63.37l1.92,42S38.37,175,46.6,173.37Z"/>
      <path class="cls-7" d="M603,180s12,1.64,11.79-3.3,0-48.22,0-48.22-1.7-12.68,7.25-5.28,45.16,60.09,45.16,60.09,9.88,0,13.17-3.29-56-70.79-56-70.79l46.09-39.5c6.59-8.23,3.25-7.42-6.58-9.88-13.17-3.29-14.82,1.65-14.82,1.65L617.8,99.3s-11.52,0-9.88-6.59,2.5-32.92,2.5-32.92-14.58-4.94-15.95,0,0,63.37,0,63.37l1.93,42S594.75,181.6,603,180Z"/>
      <path class="cls-7" d="M143.72,53.21s9.88-8.24,14.81,1.64c0,4.94,4.94,116.87,4.94,116.87s-8.55,4.94-15,0C148.49,171.72,138.78,66.37,143.72,53.21Z"/>
      <path class="cls-7 letraL" d="M191.46,46.62s7.76-5.15,13.74,0L212.86,152s13.19.63,19.75,0c5.75-.55,17.68-4.62,24.69,0,0,0,9.88,18.11-1.65,19.75s-46.09,0-49.38,0-6.58,1.65-8.23-14.81S191.46,46.62,191.46,46.62Z"/>
      <path class="cls-7" d="M273.76,76.25c0-6.58-3.29-28,0-31.28S282,41.68,282,41.68s6.59,0,8.23,3.29,3.29,21.4,3.29,24.7,0,72.42,1.65,75.72,0,11.52,9.88,9.87S333,152,333,152s4.94-1.64,6.59,1.65,3.29,9.87,1.64,11.52-6.58,4.94-9.87,4.94c-1.65,0-24.41,1.69-47.74-1.65C273.76,158.56,273.76,81.19,273.76,76.25Z"/>
      <path class="cls-7" d="M365.94,171.72s58.18,2.75,59.54,2.2,3-13.72-1.92-13.72-41.39,1.65-44.56,0-1.53-42.8-1.53-42.8,4.55-6,8.86-5.45,32.89.51,35.58.51c3.29,0,6.55.78,6.59-3.29,0-1.79,1.68-7.84,0-9.87s-8.23-1.65-8.23-1.65L384.05,99.3s-4.94,0-4.94-1.65-1.64-13.17-1.64-13.17l1.64-18.11s32-1.64,39,0a23.85,23.85,0,0,0,12,0s3.29-9.87-1.64-11.52-56-1.64-56-1.64S361,51.56,361,61.44V163.49S362.11,172.46,365.94,171.72Z"/>
      <path class="cls-7" d="M701.75,171.72s58.17,2.75,59.54,2.2,3-13.72-1.93-13.72-41.38,1.65-44.56,0-1.53-42.8-1.53-42.8,4.55-6,8.86-5.45,32.89.51,35.59.51c3.29,0,6.55.78,6.58-3.29,0-1.79,1.68-7.84,0-9.87s-8.23-1.65-8.23-1.65L719.86,99.3s-4.94,0-4.94-1.65-1.65-13.17-1.65-13.17l1.65-18.11s32-1.64,39,0a23.85,23.85,0,0,0,12,0s3.29-9.87-1.65-11.52-56-1.64-56-1.64-11.52-1.65-11.52,8.23V163.49S697.92,172.46,701.75,171.72Z"/>
      <path class="cls-7" d="M533.85,167.87s-29.63-38.94-32.93-42.24,0-8.23,0-8.23,17.88-7.8,22.94-11.31,10-16.67,8.34-26.55-21.4-21.4-21.4-21.4c-3.81-.54-30.91-5.85-41.15-3.29-6.59,1.65-8.23,4.94-8.23,4.94s-8.23,87.24-3.29,118.52c0,0,10.55,1.65,12.68,0s2.13-51,2.13-52.68a3.55,3.55,0,0,1,3.29-3.29c2.33,0,14.82,9.88,16.46,13.17s19.76,29.63,21.4,31.28,5.79,9.87,7.84,9.87,10.27,0,11.92-1.64S533.85,167.87,533.85,167.87Zm-62.33-62.32,1.36-38.08c13.23-2.74,23.11-1.1,33,2.2s11.53,11.52,11.53,18.1,0,11.53-11.53,16.46S471.52,105.55,471.52,105.55Z"/>
      <path class="cls-7 letraB" d="M866.36,130.57c0-6.58-9.88-18.11-15.76-22.18s-7.28-5.8-7.28-10.74,1.64-7.19,6.58-11.52,4.94-11.53,3.29-16.46S846.61,58.14,839,54.16s-23.69-2.6-33.22-1.06-8.58,8.82-8.58,8.82V168.43c1.65,3.29,26.2,1.65,31.28,1.65s14.82-1.65,29.63-9.88S866.36,137.16,866.36,130.57ZM826.55,60.92c7.92,1.22,13.47,7.89,15.12,13.36s0,14.56-6.59,21.85-26.33,7.28-26.33,7.28L807.1,63.35A38.19,38.19,0,0,1,826.55,60.92Zm21.7,89.41c-6.58,8.23-39.5,9.06-39.5,9.06v-39.5c8.23-4.1,14.81-5.78,26.45-5.58s18,14.62,18,14.62S854.84,142.09,848.25,150.33Z"/>
      <path class="cls-7" d="M1083.65,127.28c0-6.58-9.88-18.11-15.76-22.18s-7.29-5.8-7.29-10.74,1.65-7.19,6.59-11.52,4.93-11.53,3.29-16.47-6.59-11.52-14.17-15.51-23.69-2.59-33.22-1-8.58,8.82-8.58,8.82V165.14c1.65,3.29,26.2,1.65,31.28,1.65s14.81-1.65,29.63-9.88S1083.65,133.86,1083.65,127.28Zm-39.81-69.65c7.92,1.22,13.47,7.89,15.12,13.36s0,14.56-6.59,21.85-26.34,7.28-26.34,7.28l-1.64-40.06A38.19,38.19,0,0,1,1043.84,57.63Zm21.7,89.4c-6.58,8.23-39.51,9.07-39.51,9.07V116.6c8.23-4.1,14.82-5.78,26.46-5.58s18,14.61,18,14.61S1072.12,138.8,1065.54,147Z"/>
      <path class="cls-7" d="M989.82,160.2c-1-6.36-36.88-87.69-39.51-90.53-1.12-1.21-7.22-21.41-9.37-21.41-2,0-5.79,5.07-6.33,5.81a1.13,1.13,0,0,0-.12.18c-1.76,3.46-51.44,100.91-56.29,114.66a1.47,1.47,0,0,0,1.06,1.91c4.26,1,16.75,3.61,17.49,1.64.89-2.38,16.18-39.08,17.35-40.24,1.64-1.65,1.64-4.94,8.23-3.29,3.35.83,26.69,0,29.36,0a1.45,1.45,0,0,1,.55.1,11.18,11.18,0,0,1,6.3,6.48c1.55,4.65,7.47,25.33,8.17,27.75a1.24,1.24,0,0,0,.21.45c.68.95,3.56,4.72,6.44,4.72a63.9,63.9,0,0,0,6.58,0C980.16,168.4,990.9,167.22,989.82,160.2Zm-40.37-39.78c-7.37.28-32.21,0-32.21,0-1.5-4.66,15.69-39,16.61-40.88a12.34,12.34,0,0,1,4.94-4.94c4.94,0,15.8,32.23,15.8,32.23S956.82,120.15,949.45,120.42Z"/>
    </g>
  </g>
</svg>
