<svg xmlns="http://www.w3.org/2000/svg" width="303.41" height="429.57" viewBox="0 0 303.41 429.57">
  <defs>
    <style>
      .cls-1 {
        opacity: 0.28;
      }

      .cls-2 {
        fill: #fff;
        stroke: #1d1d1b;
        stroke-linecap: round;
        stroke-miterlimit: 10;
        stroke-width: 14px;
      }
    </style>
  </defs>
  <g id="Layer_4" data-name="Layer 4">
    <path class="cls-2" d="M221.84,422.57s42.35-16.22,59.47-55c24.07-57.45,13-174.11,9.5-205.3a42.92,42.92,0,0,0-7.87-20.57c-14.53-19.82-29.56-2.11-29.56-2.11-27.94,28.83-32.44,123.45-28.84,128s16.22,13.51,24.33-21.63-9-106.33-17.12-113.54-23.43-9.91-32.44,3.6c-35.14,51.37-26.13,122.56-19.59,125.5s16.89,2.46,21-28.76S188.5,135.11,182.19,127.9s-16.22-12.61-27-5.4S138,152.23,131.71,181.92s7.22,138.82,13.53,52.32-15.77-205-22.07-214.92c-5.83-9.15-15.32-16.22-31.54-9.91S75,36.89,73.15,55.81,68.74,270.79,88,275.24c5.86,1.35,17.12-2.71,11.15-20.69-3.07-9.25-11.92-23.78-19.92-37A198.8,198.8,0,0,1,66.88,194C55,166.55,37.56,168.3,32.6,166.65c-3.8-1.27-14.76-1.2-21.56,4.6a12,12,0,0,0-2.43,15c9.54,16.81,27.48,73,33.91,115.59,7.2,47.76,23.42,76.59,23.42,76.59s9.92,19.83,33.35,36.95"/>
  </g>
</svg>
