<svg id="Layer_1" data-name="Layer 1" xmlns="http://www.w3.org/2000/svg" xmlns:xlink="http://www.w3.org/1999/xlink" width="819" height="140" viewBox="0 0 819 140">
  <defs>
    <style>
      .cls-1 {
        opacity: 0.5;
        filter: url(#AI_GaussianBlur_7);
      }

      .cls-2 {
        fill: url(#linear-gradient);
      }

      .cls-3 {
        opacity: 0.8;
        filter: url(#AI_GaussianBlur_4);
      }

      .cls-4 {
        fill: #534741;
      }

      .cls-5 {
        fill: #fff;
        stroke: #bf2631;
        stroke-miterlimit: 10;
        stroke-width: 4px;
      }
    </style>
    <filter id="AI_GaussianBlur_7" name="AI_GaussianBlur_7">
      <feGaussianBlur stdDeviation="7"/>
    </filter>
    <linearGradient id="linear-gradient" x1="409.25" y1="128.24" x2="409.25" y2="2.79" gradientUnits="userSpaceOnUse">
      <stop offset="0" stop-color="#5b1112"/>
      <stop offset="0.04" stop-color="#741717"/>
      <stop offset="0.11" stop-color="#9e2121"/>
      <stop offset="0.18" stop-color="#c12928"/>
      <stop offset="0.26" stop-color="#dc302e"/>
      <stop offset="0.33" stop-color="#f03433"/>
      <stop offset="0.41" stop-color="#fb3735"/>
      <stop offset="0.49" stop-color="#ff3836"/>
      <stop offset="0.59" stop-color="#fc3735"/>
      <stop offset="0.66" stop-color="#f33633"/>
      <stop offset="0.72" stop-color="#e33330"/>
      <stop offset="0.78" stop-color="#cd2e2b"/>
      <stop offset="0.83" stop-color="#b12825"/>
      <stop offset="0.88" stop-color="#8e221d"/>
      <stop offset="0.93" stop-color="#651915"/>
      <stop offset="0.93" stop-color="#631914"/>
    </linearGradient>
    <filter id="AI_GaussianBlur_4" name="AI_GaussianBlur_4">
      <feGaussianBlur stdDeviation="4"/>
    </filter>
  </defs>
  <g>
    <g class="cls-1">
      <path class="cls-2" d="M69.41,62.74s-5.21-38.93,6.06-42,23.21-5.12,26,0,14-3.17,15.53-3.12,17.23-4.14,18.1,0-1.21,9,7,4.51,10.64-14.37,17.11-6.34S173,25.6,177,20.09s21.4-6.53,21.4-.38S209.07,34,209.07,34s3.4,6.19,7.64-3.54,15-22.64,20.91-17.72,24.15,26.34,21.67,46.36,6.69,14.21,7.23,9.95,2.42-40.12,6.61-44.73,39-14.67,49.26-9.64,12.3,12.2,18.44,9.64,27.67-14.71,41.5-7.61,22,30.61,23.56,30.63,8.63-4.07,10.21-18.93,15.92-16.9,21-11.78,18,18.44,19.75,11.78,19.19-4.6,23.28-4.09S494,19.42,494,19.42s6.66-3.81,27.15.29,28.68,9.78,28.68,9.78,11.14-5.94,14.79-9.4,12.64-7.08,22-2.7,12.18,21.43,13.83,22.12-5.23,12.93,6.41,7.83,19.54-25.14,24.3-27.92S654,9.25,658.78,18.06s4.45,22.8,9.74,21.45,6.63-9.56,12.11-15.19,30.81-16.14,46.83-4.23,19.84,18.06,15.88,24.72-9.21,16.9-6.07,17.93,15.73,21,12.51,26.38S721,125.88,705.58,118.9s-21.87-11.08-30.92-6.47-21,3.47-25.76-2.62-4.8-8.14-12-1.48S631.81,117,612.34,116s-9.5-10.25-27.8-3.59-17.31,7.35-28,4.44-2-11.1-25.35-4.44S509.89,119.66,494,123s-17.26,10-28.36,0,5-13.39-15.88-8.12-23,17.89-33.72,3.38-1.09,4.92-20.22,1.36-27.55-17.38-30-15.08,1.12,10.77-10.91,15.75-25,4.57-26.22.68,11.11-6.61-7.84-4.74-43.56-3.76-43.56-3.76,3.09,6.66-11.26,8.71-27.45-11.27-32.68-8.71-14,10-32.18,5.79S191,105.77,170.1,112.43s-21.88-4.1-21.88-4.1-18.28,20.22-24.51,14-13.12-17.78-13.12-17.78-3.71,13.88-9.17,13.72-6.48,15.24-21.85-2.7S69.41,62.74,69.41,62.74Z"/>
    </g>
    <g>
      <g class="cls-3">
        <path class="cls-4" d="M85.3,108.81s7.32,1,7.16-2,0-29.3,0-29.3-1-7.7,4.4-3.2,27.44,36.5,27.44,36.5,6,0,8-2-34-43-34-43l28-24c4-5,2-4.51-4-6-8-2-9,1-9,1l-19,23s-7,0-6-4,1.52-20,1.52-20-8.86-3-9.69,0,0,38.5,0,38.5l1.17,25.5S80.3,109.81,85.3,108.81Z"/>
        <path class="cls-4" d="M423.3,112.81s7.32,1,7.16-2,0-29.3,0-29.3-1-7.7,4.4-3.2,27.44,36.5,27.44,36.5,6,0,8-2-34-43-34-43l28-24c4-5,2-4.51-4-6-8-2-9,1-9,1l-19,23s-7,0-6-4,1.52-20,1.52-20-8.86-3-9.69,0,0,38.5,0,38.5l1.17,25.5S418.3,113.81,423.3,112.81Z"/>
        <path class="cls-4" d="M144.3,35.81s6-5,9,1c0,3,3,71,3,71s-5.2,3-9.1,0C147.2,107.81,141.3,43.81,144.3,35.81Z"/>
        <path class="cls-4" d="M173.3,31.81s4.72-3.13,8.35,0l4.65,64a118.58,118.58,0,0,0,12,0c3.49-.33,10.74-2.81,15,0,0,0,6,11-1,12s-28,0-30,0-4,1-5-9S173.3,31.81,173.3,31.81Z"/>
        <path class="cls-4" d="M223.3,49.81c0-4-2-17,0-19a7.81,7.81,0,0,1,5-2s4,0,5,2,2,13,2,15,0,44,1,46,0,7,6,6,17-2,17-2,3-1,4,1,2,6,1,7-4,3-6,3a158.74,158.74,0,0,1-29-1C223.3,99.81,223.3,52.81,223.3,49.81Z"/>
        <path class="cls-4" d="M279.3,107.81s35.34,1.67,36.17,1.33,1.83-8.33-1.17-8.33-25.14,1-27.07,0-.93-26-.93-26,2.76-3.62,5.38-3.31,20,.31,21.62.31c2,0,4,.47,4-2,0-1.09,1-4.77,0-6s-5-1-5-1l-22,1s-3,0-3-1-1-8-1-8l1-11s19.43-1,23.72,0a14.51,14.51,0,0,0,7.28,0s2-6-1-7-34-1-34-1-7-1-7,5v62S277,108.25,279.3,107.81Z"/>
        <path class="cls-4" d="M483.3,107.81s35.34,1.67,36.17,1.33,1.83-8.33-1.17-8.33-25.14,1-27.07,0-.93-26-.93-26,2.76-3.62,5.38-3.31,20,.31,21.62.31c2,0,4,.47,4-2,0-1.09,1-4.77,0-6s-5-1-5-1l-22,1s-3,0-3-1-1-8-1-8l1-11s19.43-1,23.72,0a14.51,14.51,0,0,0,7.28,0s2-6-1-7-34-1-34-1-7-1-7,5v62S481,108.25,483.3,107.81Z"/>
        <path class="cls-4" d="M381.3,105.47s-18-23.66-20-25.66,0-5,0-5,10.86-4.74,13.93-6.87,6.07-10.13,5.07-16.13-13-13-13-13c-2.32-.33-18.78-3.56-25-2-4,1-5,3-5,3s-5,53-2,72c0,0,6.41,1,7.71,0s1.29-31,1.29-32a2.15,2.15,0,0,1,2-2c1.41,0,9,6,10,8s12,18,13,19,3.52,6,4.76,6,6.24,0,7.24-1S381.3,105.47,381.3,105.47ZM343.43,67.61l.83-23.13a36,36,0,0,1,20,1.33c6,2,7,7,7,11s0,7-7,10S343.43,67.61,343.43,67.61Z"/>
        <path class="cls-4" d="M583.3,82.81c0-4-6-11-9.57-13.47s-4.43-3.53-4.43-6.53,1-4.37,4-7,3-7,2-10a18.11,18.11,0,0,0-8.61-9.42c-4.6-2.43-14.39-1.58-20.18-.64s-5.21,5.35-5.21,5.35v64.71c1,2,15.91,1,19,1s9-1,18-6S583.3,86.81,583.3,82.81ZM559.11,40.5a12,12,0,0,1,9.19,8.11c1,3.32,0,8.85-4,13.27s-16,4.43-16,4.43L547.3,42A23.2,23.2,0,0,1,559.11,40.5ZM572.3,94.81c-4,5-24,5.5-24,5.5v-24c5-2.49,9-3.51,16.07-3.39s10.93,8.88,10.93,8.88S576.3,89.81,572.3,94.81Z"/>
        <path class="cls-4" d="M715.3,80.81c0-4-6-11-9.57-13.47s-4.43-3.53-4.43-6.53,1-4.37,4-7,3-7,2-10a18.11,18.11,0,0,0-8.61-9.42c-4.6-2.43-14.39-1.58-20.18-.64s-5.21,5.35-5.21,5.35v64.71c1,2,15.91,1,19,1s9-1,18-6S715.3,84.81,715.3,80.81ZM691.11,38.5a12,12,0,0,1,9.19,8.11c1,3.32,0,8.85-4,13.27s-16,4.43-16,4.43L679.3,40A23.2,23.2,0,0,1,691.11,38.5ZM704.3,92.81c-4,5-24,5.5-24,5.5v-24c5-2.49,9-3.51,16.07-3.39s10.93,8.88,10.93,8.88S708.3,87.81,704.3,92.81Z"/>
        <path class="cls-4" d="M658.3,100.81c-.6-3.87-22.4-53.28-24-55-.68-.74-4.38-13-5.69-13s-3.52,3.07-3.85,3.52l-.07.11c-1.07,2.1-31.25,61.31-34.2,69.66a.89.89,0,0,0,.65,1.16c2.59.58,10.17,2.19,10.62,1,.54-1.44,9.83-23.73,10.54-24.44,1-1,1-3,5-2,2,.51,16.21,0,17.84,0a.92.92,0,0,1,.33.06,6.82,6.82,0,0,1,3.83,3.94c.94,2.82,4.54,15.39,5,16.86a1,1,0,0,0,.13.27c.41.57,2.16,2.87,3.91,2.87a40,40,0,0,0,4,0C652.43,105.79,659,105.07,658.3,100.81ZM633.78,76.64c-4.48.17-19.57,0-19.57,0-.91-2.83,9.53-23.71,10.09-24.83a7.47,7.47,0,0,1,3-3c3,0,9.6,19.57,9.6,19.57S638.25,76.47,633.78,76.64Z"/>
      </g>
      <g>
        <path class="cls-5" d="M93.8,103.81s7.32,1,7.16-2,0-29.3,0-29.3-1-7.7,4.4-3.2,27.44,36.5,27.44,36.5,6,0,8-2-34-43-34-43l28-24c4-5,2-4.51-4-6-8-2-9,1-9,1l-19,23s-7,0-6-4,1.52-20,1.52-20-8.86-3-9.69,0,0,38.5,0,38.5l1.17,25.5S88.8,104.81,93.8,103.81Z"/>
        <path class="cls-5" d="M431.8,107.81s7.32,1,7.16-2,0-29.3,0-29.3-1-7.7,4.4-3.2,27.44,36.5,27.44,36.5,6,0,8-2-34-43-34-43l28-24c4-5,2-4.51-4-6-8-2-9,1-9,1l-19,23s-7,0-6-4,1.52-20,1.52-20-8.86-3-9.69,0,0,38.5,0,38.5l1.17,25.5S426.8,108.81,431.8,107.81Z"/>
        <path class="cls-5" d="M152.8,30.81s6-5,9,1c0,3,3,71,3,71s-5.2,3-9.1,0C155.7,102.81,149.8,38.81,152.8,30.81Z"/>
        <path class="cls-5" d="M181.8,26.81s4.72-3.13,8.35,0l4.65,64a118.58,118.58,0,0,0,12,0c3.49-.33,10.74-2.81,15,0,0,0,6,11-1,12s-28,0-30,0-4,1-5-9S181.8,26.81,181.8,26.81Z"/>
        <path class="cls-5" d="M231.8,44.81c0-4-2-17,0-19a7.81,7.81,0,0,1,5-2s4,0,5,2,2,13,2,15,0,44,1,46,0,7,6,6,17-2,17-2,3-1,4,1,2,6,1,7-4,3-6,3a158.74,158.74,0,0,1-29-1C231.8,94.81,231.8,47.81,231.8,44.81Z"/>
        <path class="cls-5" d="M287.8,102.81s35.34,1.67,36.17,1.33,1.83-8.33-1.17-8.33-25.14,1-27.07,0-.93-26-.93-26,2.76-3.62,5.38-3.31,20,.31,21.62.31c2,0,4,.47,4-2,0-1.09,1-4.77,0-6s-5-1-5-1l-22,1s-3,0-3-1-1-8-1-8l1-11s19.43-1,23.72,0a14.51,14.51,0,0,0,7.28,0s2-6-1-7-34-1-34-1-7-1-7,5v62S285.47,103.25,287.8,102.81Z"/>
        <path class="cls-5" d="M491.8,102.81s35.34,1.67,36.17,1.33,1.83-8.33-1.17-8.33-25.14,1-27.07,0-.93-26-.93-26,2.76-3.62,5.38-3.31,20,.31,21.62.31c2,0,4,.47,4-2,0-1.09,1-4.77,0-6s-5-1-5-1l-22,1s-3,0-3-1-1-8-1-8l1-11s19.43-1,23.72,0a14.51,14.51,0,0,0,7.28,0s2-6-1-7-34-1-34-1-7-1-7,5v62S489.47,103.25,491.8,102.81Z"/>
        <path class="cls-5" d="M389.8,100.47s-18-23.66-20-25.66,0-5,0-5,10.86-4.74,13.93-6.87,6.07-10.13,5.07-16.13-13-13-13-13c-2.32-.33-18.78-3.56-25-2-4,1-5,3-5,3s-5,53-2,72c0,0,6.41,1,7.71,0s1.29-31,1.29-32a2.15,2.15,0,0,1,2-2c1.41,0,9,6,10,8s12,18,13,19,3.52,6,4.76,6,6.24,0,7.24-1S389.8,100.47,389.8,100.47ZM351.93,62.61l.83-23.13a36,36,0,0,1,20,1.33c6,2,7,7,7,11s0,7-7,10S351.93,62.61,351.93,62.61Z"/>
        <path class="cls-5" d="M591.8,77.81c0-4-6-11-9.57-13.47s-4.43-3.53-4.43-6.53,1-4.37,4-7,3-7,2-10a18.11,18.11,0,0,0-8.61-9.42c-4.6-2.43-14.39-1.58-20.18-.64s-5.21,5.35-5.21,5.35v64.71c1,2,15.91,1,19,1s9-1,18-6S591.8,81.81,591.8,77.81ZM567.61,35.5a12,12,0,0,1,9.19,8.11c1,3.32,0,8.85-4,13.27s-16,4.43-16,4.43L555.8,37A23.2,23.2,0,0,1,567.61,35.5ZM580.8,89.81c-4,5-24,5.5-24,5.5v-24c5-2.49,9-3.51,16.07-3.39s10.93,8.88,10.93,8.88S584.8,84.81,580.8,89.81Z"/>
        <path class="cls-5" d="M723.8,75.81c0-4-6-11-9.57-13.47s-4.43-3.53-4.43-6.53,1-4.37,4-7,3-7,2-10a18.11,18.11,0,0,0-8.61-9.42c-4.6-2.43-14.39-1.58-20.18-.64s-5.21,5.35-5.21,5.35V98.81c1,2,15.91,1,19,1s9-1,18-6S723.8,79.81,723.8,75.81ZM699.61,33.5a12,12,0,0,1,9.19,8.11c1,3.32,0,8.85-4,13.27s-16,4.43-16,4.43L687.8,35A23.2,23.2,0,0,1,699.61,33.5ZM712.8,87.81c-4,5-24,5.5-24,5.5v-24c5-2.49,9-3.51,16.07-3.39s10.93,8.88,10.93,8.88S716.8,82.81,712.8,87.81Z"/>
        <path class="cls-5" d="M666.8,95.81c-.6-3.87-22.4-53.28-24-55-.68-.74-4.38-13-5.69-13s-3.52,3.07-3.85,3.52l-.07.11c-1.07,2.1-31.25,61.31-34.2,69.66a.89.89,0,0,0,.65,1.16c2.59.58,10.17,2.19,10.62,1,.54-1.44,9.83-23.73,10.54-24.44,1-1,1-3,5-2,2,.51,16.21,0,17.84,0a.92.92,0,0,1,.33.06,6.82,6.82,0,0,1,3.83,3.94c.94,2.82,4.54,15.39,5,16.86a1,1,0,0,0,.13.27c.41.57,2.16,2.87,3.91,2.87a40,40,0,0,0,4,0C660.93,100.79,667.46,100.07,666.8,95.81ZM642.28,71.64c-4.48.17-19.57,0-19.57,0-.91-2.83,9.53-23.71,10.09-24.83a7.47,7.47,0,0,1,3-3c3,0,9.6,19.57,9.6,19.57S646.75,71.47,642.28,71.64Z"/>
      </g>
    </g>
  </g>
</svg>
