<svg id="Layer_1" data-name="Layer 1" xmlns="http://www.w3.org/2000/svg" xmlns:xlink="http://www.w3.org/1999/xlink" width="829" height="150" viewBox="0 0 829 150">
  <defs>
    <style>
      .cls-1 {
        opacity: 0.52;
        filter: url(#AI_GaussianBlur_7);
      }

      .cls-2 {
        opacity: 0.8;
        filter: url(#AI_GaussianBlur_4);
      }

      .cls-3 {
        fill: #534741;
      }

      .cls-4 {
        fill: #fff;
        stroke: #bf2631;
        stroke-miterlimit: 10;
        stroke-width: 4px;
      }
    </style>
    <filter id="AI_GaussianBlur_7" name="AI_GaussianBlur_7">
      <feGaussianBlur stdDeviation="7"/>
    </filter>
    <filter id="AI_GaussianBlur_4" name="AI_GaussianBlur_4">
      <feGaussianBlur stdDeviation="4"/>
    </filter>
  </defs>
  <g>
    <image class="cls-1" width="829" height="150" xlink:href="signKebab-v31.png"/>
    <g>
      <g class="cls-2">
        <path class="cls-3" d="M95.1,111.61s7.32,1,7.16-2,0-29.29,0-29.29-1-7.71,4.4-3.21,27.44,36.5,27.44,36.5,6,0,8-2-34-43-34-43l28-24c4-5,2-4.5-4-6-8-2-9,1-9,1l-19,23s-7,0-6-4,1.52-20,1.52-20-8.86-3-9.69,0,0,38.5,0,38.5l1.17,25.5S90.1,112.61,95.1,111.61Z"/>
        <path class="cls-3" d="M433.1,115.61s7.32,1,7.16-2,0-29.29,0-29.29-1-7.71,4.4-3.21,27.44,36.5,27.44,36.5,6,0,8-2-34-43-34-43l28-24c4-5,2-4.5-4-6-8-2-9,1-9,1l-19,23s-7,0-6-4,1.52-20,1.52-20-8.86-3-9.69,0,0,38.5,0,38.5l1.17,25.5S428.1,116.61,433.1,115.61Z"/>
        <path class="cls-3" d="M154.1,38.61s6-5,9,1c0,3,3,71,3,71s-5.2,3-9.1,0C157,110.61,151.1,46.61,154.1,38.61Z"/>
        <path class="cls-3" d="M183.1,34.61s4.72-3.12,8.35,0l4.65,64a118.58,118.58,0,0,0,12,0c3.49-.33,10.74-2.8,15,0,0,0,6,11-1,12s-28,0-30,0-4,1-5-9S183.1,34.61,183.1,34.61Z"/>
        <path class="cls-3" d="M233.1,52.61c0-4-2-17,0-19a7.81,7.81,0,0,1,5-2s4,0,5,2,2,13,2,15,0,44,1,46,0,7,6,6,17-2,17-2,3-1,4,1,2,6,1,7-4,3-6,3a157.74,157.74,0,0,1-29-1C233.1,102.61,233.1,55.61,233.1,52.61Z"/>
        <path class="cls-3" d="M289.1,110.61s35.34,1.67,36.17,1.34,1.83-8.34-1.17-8.34-25.14,1-27.07,0-.93-26-.93-26,2.76-3.61,5.38-3.3,20,.3,21.62.3c2,0,4,.48,4-2,0-1.08,1-4.76,0-6s-5-1-5-1l-22,1s-3,0-3-1-1-8-1-8l1-11s19.43-1,23.72,0a14.51,14.51,0,0,0,7.28,0s2-6-1-7-34-1-34-1-7-1-7,5v62S286.77,111.06,289.1,110.61Z"/>
        <path class="cls-3" d="M493.1,110.61s35.34,1.67,36.17,1.34,1.83-8.34-1.17-8.34-25.14,1-27.07,0-.93-26-.93-26,2.76-3.61,5.38-3.3,20,.3,21.62.3c2,0,4,.48,4-2,0-1.08,1-4.76,0-6s-5-1-5-1l-22,1s-3,0-3-1-1-8-1-8l1-11s19.43-1,23.72,0a14.51,14.51,0,0,0,7.28,0s2-6-1-7-34-1-34-1-7-1-7,5v62S490.77,111.06,493.1,110.61Z"/>
        <path class="cls-3" d="M391.1,108.27s-18-23.66-20-25.66,0-5,0-5S382,72.87,385,70.74s6.07-10.13,5.07-16.13-13-13-13-13c-2.32-.33-18.78-3.55-25-2-4,1-5,3-5,3s-5,53-2,72c0,0,6.41,1,7.71,0s1.29-31,1.29-32a2.15,2.15,0,0,1,2-2c1.41,0,9,6,10,8s12,18,13,19,3.52,6,4.76,6,6.24,0,7.24-1S391.1,108.27,391.1,108.27ZM353.23,70.41l.83-23.13a36,36,0,0,1,20,1.33c6,2,7,7,7,11s0,7-7,10S353.23,70.41,353.23,70.41Z"/>
        <path class="cls-3" d="M593.1,85.61c0-4-6-11-9.57-13.47s-4.43-3.53-4.43-6.53,1-4.36,4-7,3-7,2-10a18.11,18.11,0,0,0-8.61-9.42c-4.6-2.42-14.39-1.58-20.18-.64s-5.21,5.36-5.21,5.36v64.7c1,2,15.91,1,19,1s9-1,18-6S593.1,89.61,593.1,85.61ZM568.91,43.3a12,12,0,0,1,9.19,8.12c1,3.31,0,8.85-4,13.27s-16,4.42-16,4.42l-1-24.33A23.19,23.19,0,0,1,568.91,43.3ZM582.1,97.61c-4,5-24,5.51-24,5.51v-24c5-2.49,9-3.52,16.07-3.39s10.93,8.87,10.93,8.87S586.1,92.61,582.1,97.61Z"/>
        <path class="cls-3" d="M725.1,83.61c0-4-6-11-9.57-13.47s-4.43-3.53-4.43-6.53,1-4.36,4-7,3-7,2-10a18.11,18.11,0,0,0-8.61-9.42c-4.6-2.42-14.39-1.58-20.18-.64s-5.21,5.36-5.21,5.36v64.7c1,2,15.91,1,19,1s9-1,18-6S725.1,87.61,725.1,83.61ZM700.91,41.3a12,12,0,0,1,9.19,8.12c1,3.31,0,8.85-4,13.27s-16,4.42-16,4.42l-1-24.33A23.19,23.19,0,0,1,700.91,41.3ZM714.1,95.61c-4,5-24,5.51-24,5.51v-24c5-2.49,9-3.52,16.07-3.39s10.93,8.87,10.93,8.87S718.1,90.61,714.1,95.61Z"/>
        <path class="cls-3" d="M668.1,103.61c-.6-3.86-22.4-53.27-24-55-.68-.73-4.39-13-5.69-13s-3.52,3.08-3.85,3.53l-.07.11c-1.07,2.1-31.25,61.3-34.2,69.66a.88.88,0,0,0,.65,1.15c2.59.59,10.17,2.2,10.62,1,.54-1.45,9.83-23.74,10.54-24.45,1-1,1-3,5-2,2,.51,16.21,0,17.84,0a.75.75,0,0,1,.33.06,6.82,6.82,0,0,1,3.83,3.93c.94,2.83,4.54,15.39,5,16.86a.84.84,0,0,0,.13.27c.41.58,2.16,2.87,3.91,2.87a37.13,37.13,0,0,0,4,0C662.23,108.6,668.76,107.88,668.1,103.61ZM643.58,79.45c-4.48.16-19.57,0-19.57,0-.91-2.84,9.53-23.71,10.09-24.84a7.47,7.47,0,0,1,3-3c3,0,9.6,19.58,9.6,19.58S648.05,79.28,643.58,79.45Z"/>
      </g>
      <g>
        <path class="cls-4" d="M104.6,105.61s7.32,1,7.16-2,0-29.29,0-29.29-1-7.71,4.4-3.21,27.44,36.5,27.44,36.5,6,0,8-2-34-43-34-43l28-24c4-5,2-4.5-4-6-8-2-9,1-9,1l-19,23s-7,0-6-4,1.52-20,1.52-20-8.86-3-9.69,0,0,38.5,0,38.5l1.17,25.5S99.6,106.61,104.6,105.61Z"/>
        <path class="cls-4" d="M442.6,109.61s7.32,1,7.16-2,0-29.29,0-29.29-1-7.71,4.4-3.21,27.44,36.5,27.44,36.5,6,0,8-2-34-43-34-43l28-24c4-5,2-4.5-4-6-8-2-9,1-9,1l-19,23s-7,0-6-4,1.52-20,1.52-20-8.86-3-9.69,0,0,38.5,0,38.5l1.17,25.5S437.6,110.61,442.6,109.61Z"/>
        <path class="cls-4" d="M163.6,32.61s6-5,9,1c0,3,3,71,3,71s-5.2,3-9.1,0C166.5,104.61,160.6,40.61,163.6,32.61Z"/>
        <path class="cls-4" d="M192.6,28.61s4.72-3.12,8.35,0l4.65,64a118.58,118.58,0,0,0,12,0c3.49-.33,10.74-2.8,15,0,0,0,6,11-1,12s-28,0-30,0-4,1-5-9S192.6,28.61,192.6,28.61Z"/>
        <path class="cls-4" d="M242.6,46.61c0-4-2-17,0-19a7.81,7.81,0,0,1,5-2s4,0,5,2,2,13,2,15,0,44,1,46,0,7,6,6,17-2,17-2,3-1,4,1,2,6,1,7-4,3-6,3a157.74,157.74,0,0,1-29-1C242.6,96.61,242.6,49.61,242.6,46.61Z"/>
        <path class="cls-4" d="M298.6,104.61s35.34,1.67,36.17,1.34,1.83-8.34-1.17-8.34-25.14,1-27.07,0-.93-26-.93-26,2.76-3.61,5.38-3.3,20,.3,21.62.3c2,0,4,.48,4-2,0-1.08,1-4.76,0-6s-5-1-5-1l-22,1s-3,0-3-1-1-8-1-8l1-11s19.43-1,23.72,0a14.51,14.51,0,0,0,7.28,0s2-6-1-7-34-1-34-1-7-1-7,5v62S296.27,105.06,298.6,104.61Z"/>
        <path class="cls-4" d="M502.6,104.61s35.34,1.67,36.17,1.34,1.83-8.34-1.17-8.34-25.14,1-27.07,0-.93-26-.93-26,2.76-3.61,5.38-3.3,20,.3,21.62.3c2,0,4,.48,4-2,0-1.08,1-4.76,0-6s-5-1-5-1l-22,1s-3,0-3-1-1-8-1-8l1-11s19.43-1,23.72,0a14.51,14.51,0,0,0,7.28,0s2-6-1-7-34-1-34-1-7-1-7,5v62S500.27,105.06,502.6,104.61Z"/>
        <path class="cls-4" d="M400.6,102.27s-18-23.66-20-25.66,0-5,0-5,10.86-4.74,13.93-6.87,6.07-10.13,5.07-16.13-13-13-13-13c-2.32-.33-18.78-3.55-25-2-4,1-5,3-5,3s-5,53-2,72c0,0,6.41,1,7.71,0s1.29-31,1.29-32a2.15,2.15,0,0,1,2-2c1.41,0,9,6,10,8s12,18,13,19,3.52,6,4.76,6,6.24,0,7.24-1S400.6,102.27,400.6,102.27ZM362.73,64.41l.83-23.13a36,36,0,0,1,20,1.33c6,2,7,7,7,11s0,7-7,10S362.73,64.41,362.73,64.41Z"/>
        <path class="cls-4" d="M602.6,79.61c0-4-6-11-9.57-13.47s-4.43-3.53-4.43-6.53,1-4.36,4-7,3-7,2-10A18.11,18.11,0,0,0,586,33.19c-4.6-2.42-14.39-1.58-20.18-.64s-5.21,5.36-5.21,5.36v64.7c1,2,15.91,1,19,1s9-1,18-6S602.6,83.61,602.6,79.61ZM578.41,37.3a12,12,0,0,1,9.19,8.12c1,3.31,0,8.85-4,13.27s-16,4.42-16,4.42l-1-24.33A23.19,23.19,0,0,1,578.41,37.3ZM591.6,91.61c-4,5-24,5.51-24,5.51v-24c5-2.49,9-3.52,16.07-3.39s10.93,8.87,10.93,8.87S595.6,86.61,591.6,91.61Z"/>
        <path class="cls-4" d="M734.6,77.61c0-4-6-11-9.57-13.47s-4.43-3.53-4.43-6.53,1-4.36,4-7,3-7,2-10A18.11,18.11,0,0,0,718,31.19c-4.6-2.42-14.39-1.58-20.18-.64s-5.21,5.36-5.21,5.36v64.7c1,2,15.91,1,19,1s9-1,18-6S734.6,81.61,734.6,77.61ZM710.41,35.3a12,12,0,0,1,9.19,8.12c1,3.31,0,8.85-4,13.27s-16,4.42-16,4.42l-1-24.33A23.19,23.19,0,0,1,710.41,35.3ZM723.6,89.61c-4,5-24,5.51-24,5.51v-24c5-2.49,9-3.52,16.07-3.39s10.93,8.87,10.93,8.87S727.6,84.61,723.6,89.61Z"/>
        <path class="cls-4" d="M677.6,97.61c-.6-3.86-22.4-53.27-24-55-.68-.73-4.39-13-5.69-13s-3.52,3.08-3.85,3.53l-.07.11c-1.07,2.1-31.25,61.3-34.2,69.66a.88.88,0,0,0,.65,1.15c2.59.59,10.17,2.2,10.62,1,.54-1.45,9.83-23.74,10.54-24.45,1-1,1-3,5-2,2,.51,16.21,0,17.84,0a.75.75,0,0,1,.33.06,6.82,6.82,0,0,1,3.83,3.93c.94,2.83,4.54,15.39,5,16.86a.84.84,0,0,0,.13.27c.41.58,2.16,2.87,3.91,2.87a37.13,37.13,0,0,0,4,0C671.73,102.6,678.26,101.88,677.6,97.61ZM653.08,73.45c-4.48.16-19.57,0-19.57,0-.91-2.84,9.53-23.71,10.09-24.84a7.47,7.47,0,0,1,3-3c3,0,9.6,19.58,9.6,19.58S657.55,73.28,653.08,73.45Z"/>
      </g>
    </g>
  </g>
</svg>
