<svg id="Layer_1" data-name="Layer 1" xmlns="http://www.w3.org/2000/svg" xmlns:xlink="http://www.w3.org/1999/xlink" width="817" height="145" viewBox="0 0 817 145">
  <defs>
    <style>
      .cls-1 {
        opacity: 0.5;
        filter: url(#AI_GaussianBlur_7);
      }

      .cls-2 {
        fill: #c1272d;
      }

      .cls-3 {
        filter: url(#AI_GaussianBlur_4);
      }

      .cls-4 {
        fill: #534741;
      }

      .cls-5 {
        fill: #bf2631;
        stroke: #fff;
        stroke-miterlimit: 10;
        stroke-width: 3px;
      }
    </style>
    <filter id="AI_GaussianBlur_7" name="AI_GaussianBlur_7">
      <feGaussianBlur stdDeviation="7"/>
    </filter>
    <filter id="AI_GaussianBlur_4" name="AI_GaussianBlur_4">
      <feGaussianBlur stdDeviation="4"/>
    </filter>
  </defs>
  <g>
    <g class="cls-1">
      <path class="cls-2" d="M550.31,29.6s35.3-19.5,50.05,0,5,22.9,2.88,27.2,8.14,13,9.5,20.63,3.58,30.67-15,34.17S557.07,121,554.08,113,546.53,41.1,550.31,29.6Z"/>
    </g>
    <g>
      <g class="cls-1">
        <path class="cls-2" d="M531.1,123.1c-24.17,0-21,2.1-36.74,5.52s-17.16,10.4-28.19,0,4.92-13.9-15.78-8.43-22.91,18.57-33.52,3.51-1.08,5.1-20.1,1.41S376.22,119,372.23,119c-3.62,0-4.17,1.67-16.12,6.84s-13.61,2.54-14.79-1.5-.23-4.66-19.07-2.71c-12.67,1.3-21.77-1.14-26.37-2.88a7.93,7.93,0,0,0-6.72.52,64,64,0,0,1-21.39,7.49c-14.26,2.12-27.29-11.7-32.49-9s-13.95,10.43-32,6-10.15-12.92-30.89-6c-15.55,5.18-19.88,4.82-21.07,4.31a10.26,10.26,0,0,0-1.93-.67c-2-.4-5.92-1.19-12.47-2.36-8.85-1.57-3.05-12.94-18.72-6.33a8,8,0,0,0-3.36,2.66c-2.09,2.89-6.68,8.53-10.71,8.4-5.43-.16-4.1,2.39-21.72-2.81-18.42-5.43-14.89-33.53-12-47.24A56.13,56.13,0,0,0,71.56,58c-.86-12,1.57-29.76,6.79-35.46,7.44-8.13,23.07-5.32,25.8,0s13.89-3.29,15.43-3.24,17.13-4.3,18,0-1.2,9.31,7,4.68,10.57-14.91,17-6.58,13.79,10.19,17.75,4.47,21.28-6.78,21.28-.4c0,5.36,7.46,12.18,9.85,14.23a8.45,8.45,0,0,1,1.15,1.24c1,1.33,3.84,3.69,7.18-4.3,4.22-10.1,14.94-23.5,20.78-18.4s26.49-.55,24,20.23,17.4,9.76,17.94,5.34.83-11.23,5-16S313.6,11,323.78,16.23s12.22,12.67,18.33,10,27.5-15.26,41.24-7.9,26.24,29.43,27.76,29.46,8.41-.6,10-16,8-14.23,16.76-13.52c7.8.64,18.37,22.21,20.13,15.3s18.56-7.85,22.64-7.32,13.75-5.09,13.75-5.09,6.61-3.95,27,.3c12.11,2.53,19.9,5.64,24.22,7.75A7.94,7.94,0,0,1,550,36.1c.54,17.25,2.15,78.33-1.9,80C548.1,116.1,537.1,123.1,531.1,123.1Z"/>
      </g>
      <g class="cls-1">
        <path class="cls-2" d="M611.1,59.1C615,47,625.94,23,630.67,20.15s22.71-10.55,27.47-1.4,4.42,23.66,9.68,22.25,6.59-9.91,12-15.76,30.62-16.75,46.55-4.39,19.72,18.74,15.79,25.66-9.16,17.54-6,18.6,15.63,21.81,12.43,27.39-28.66,38.15-43.93,30.9-21.74-11.5-30.73-6.71-20.84,3.6-25.61-2.72-4.76-8.45-11.89-1.54-5.09,9-24.44,8c0,0-11-7.64-6.43-41C609.1,74.1,611.1,59.1,611.1,59.1Z"/>
      </g>
    </g>
    <g class="cls-3">
      <path class="cls-4" d="M94.1,111.6s7.32,1,7.16-2,0-29.3,0-29.3-1-7.7,4.4-3.2,27.44,36.5,27.44,36.5,6,0,8-2-34-43-34-43l28-24c4-5,2-4.51-4-6-8-2-9,1-9,1l-19,23s-7,0-6-4,1.52-20,1.52-20-8.86-3-9.69,0,0,38.5,0,38.5l1.17,25.5S89.1,112.6,94.1,111.6Z"/>
      <path class="cls-4" d="M432.1,115.6s7.32,1,7.16-2,0-29.3,0-29.3-1-7.7,4.4-3.2,27.44,36.5,27.44,36.5,6,0,8-2-34-43-34-43l28-24c4-5,2-4.51-4-6-8-2-9,1-9,1l-19,23s-7,0-6-4,1.52-20,1.52-20-8.86-3-9.69,0,0,38.5,0,38.5l1.17,25.5S427.1,116.6,432.1,115.6Z"/>
      <path class="cls-4" d="M153.1,38.6s6-5,9,1c0,3,3,71,3,71s-5.2,3-9.1,0C156,110.6,150.1,46.6,153.1,38.6Z"/>
      <path class="cls-4" d="M182.1,34.6s4.72-3.13,8.35,0l4.65,64a118.58,118.58,0,0,0,12,0c3.49-.33,10.74-2.8,15,0,0,0,6,11-1,12s-28,0-30,0-4,1-5-9S182.1,34.6,182.1,34.6Z"/>
      <path class="cls-4" d="M232.1,52.6c0-4-2-17,0-19a7.81,7.81,0,0,1,5-2s4,0,5,2,2,13,2,15,0,44,1,46,0,7,6,6,17-2,17-2,3-1,4,1,2,6,1,7-4,3-6,3a158.74,158.74,0,0,1-29-1C232.1,102.6,232.1,55.6,232.1,52.6Z"/>
      <path class="cls-4" d="M288.1,110.6s35.34,1.67,36.17,1.33,1.83-8.33-1.17-8.33-25.14,1-27.07,0-.93-26-.93-26,2.76-3.62,5.38-3.31,20,.31,21.62.31c2,0,4,.47,4-2,0-1.09,1-4.77,0-6s-5-1-5-1l-22,1s-3,0-3-1-1-8-1-8l1-11s19.43-1,23.72,0a14.51,14.51,0,0,0,7.28,0s2-6-1-7-34-1-34-1-7-1-7,5v62S285.77,111,288.1,110.6Z"/>
      <path class="cls-4" d="M492.1,110.6s35.34,1.67,36.17,1.33,1.83-8.33-1.17-8.33-25.14,1-27.07,0-.93-26-.93-26,2.76-3.62,5.38-3.31,20,.31,21.62.31c2,0,4,.47,4-2,0-1.09,1-4.77,0-6s-5-1-5-1l-22,1s-3,0-3-1-1-8-1-8l1-11s19.43-1,23.72,0a14.51,14.51,0,0,0,7.28,0s2-6-1-7-34-1-34-1-7-1-7,5v62S489.77,111,492.1,110.6Z"/>
      <path class="cls-4" d="M390.1,108.26s-18-23.66-20-25.66,0-5,0-5S381,72.86,384,70.73,390.1,60.6,389.1,54.6s-13-13-13-13c-2.32-.33-18.78-3.56-25-2-4,1-5,3-5,3s-5,53-2,72c0,0,6.41,1,7.71,0s1.29-31,1.29-32a2.15,2.15,0,0,1,2-2c1.41,0,9,6,10,8s12,18,13,19,3.52,6,4.76,6,6.24,0,7.24-1S390.1,108.26,390.1,108.26ZM352.23,70.4l.83-23.13a36,36,0,0,1,20,1.33c6,2,7,7,7,11s0,7-7,10S352.23,70.4,352.23,70.4Z"/>
      <path class="cls-4" d="M592.1,85.6c0-4-6-11-9.57-13.47s-4.43-3.53-4.43-6.53,1-4.37,4-7,3-7,2-10a18.11,18.11,0,0,0-8.61-9.42c-4.6-2.42-14.39-1.58-20.18-.64s-5.21,5.35-5.21,5.35V108.6c1,2,15.91,1,19,1s9-1,18-6S592.1,89.6,592.1,85.6ZM567.91,43.29a12,12,0,0,1,9.19,8.11c1,3.32,0,8.85-4,13.28s-16,4.42-16,4.42l-1-24.34A23.2,23.2,0,0,1,567.91,43.29ZM581.1,97.6c-4,5-24,5.51-24,5.51v-24c5-2.49,9-3.51,16.07-3.39S584.1,84.6,584.1,84.6,585.1,92.6,581.1,97.6Z"/>
      <path class="cls-4" d="M724.1,83.6c0-4-6-11-9.57-13.47s-4.43-3.53-4.43-6.53,1-4.37,4-7,3-7,2-10a18.11,18.11,0,0,0-8.61-9.42c-4.6-2.42-14.39-1.58-20.18-.64s-5.21,5.35-5.21,5.35V106.6c1,2,15.91,1,19,1s9-1,18-6S724.1,87.6,724.1,83.6ZM699.91,41.29a12,12,0,0,1,9.19,8.11c1,3.32,0,8.85-4,13.28s-16,4.42-16,4.42l-1-24.34A23.2,23.2,0,0,1,699.91,41.29ZM713.1,95.6c-4,5-24,5.51-24,5.51v-24c5-2.49,9-3.51,16.07-3.39S716.1,82.6,716.1,82.6,717.1,90.6,713.1,95.6Z"/>
      <path class="cls-4" d="M667.1,103.6c-.6-3.87-22.4-53.27-24-55-.68-.73-4.39-13-5.69-13s-3.52,3.08-3.85,3.52a.47.47,0,0,0-.07.12c-1.07,2.1-31.25,61.3-34.2,69.65a.89.89,0,0,0,.65,1.16c2.59.58,10.17,2.19,10.62,1,.54-1.44,9.83-23.73,10.54-24.44,1-1,1-3,5-2,2,.51,16.21,0,17.84,0a.75.75,0,0,1,.33.07,6.76,6.76,0,0,1,3.83,3.93c.94,2.82,4.54,15.39,5,16.86a.84.84,0,0,0,.13.27c.41.58,2.16,2.87,3.91,2.87a40,40,0,0,0,4,0C661.23,108.58,667.76,107.86,667.1,103.6ZM642.58,79.43c-4.48.17-19.57,0-19.57,0-.91-2.83,9.53-23.71,10.09-24.83a7.47,7.47,0,0,1,3-3c3,0,9.6,19.58,9.6,19.58S647.05,79.27,642.58,79.43Z"/>
    </g>
    <g>
      <path class="cls-5" d="M103.6,107.6s7.32,1,7.16-2,0-29.3,0-29.3-1-7.7,4.4-3.2,27.44,36.5,27.44,36.5,6,0,8-2-34-43-34-43l28-24c4-5,2-4.51-4-6-8-2-9,1-9,1l-19,23s-7,0-6-4,1.52-20,1.52-20-8.86-3-9.69,0,0,38.5,0,38.5L99.6,98.6S98.6,108.6,103.6,107.6Z"/>
      <path class="cls-5" d="M441.6,111.6s7.32,1,7.16-2,0-29.3,0-29.3-1-7.7,4.4-3.2,27.44,36.5,27.44,36.5,6,0,8-2-34-43-34-43l28-24c4-5,2-4.51-4-6-8-2-9,1-9,1l-19,23s-7,0-6-4,1.52-20,1.52-20-8.86-3-9.69,0,0,38.5,0,38.5l1.17,25.5S436.6,112.6,441.6,111.6Z"/>
      <path class="cls-5" d="M162.6,34.6s6-5,9,1c0,3,3,71,3,71s-5.2,3-9.1,0C165.5,106.6,159.6,42.6,162.6,34.6Z"/>
      <path class="cls-5" d="M191.6,30.6s4.72-3.13,8.35,0l4.65,64a118.58,118.58,0,0,0,12,0c3.49-.33,10.74-2.8,15,0,0,0,6,11-1,12s-28,0-30,0-4,1-5-9S191.6,30.6,191.6,30.6Z"/>
      <path class="cls-5" d="M241.6,48.6c0-4-2-17,0-19a7.81,7.81,0,0,1,5-2s4,0,5,2,2,13,2,15,0,44,1,46,0,7,6,6,17-2,17-2,3-1,4,1,2,6,1,7-4,3-6,3a158.74,158.74,0,0,1-29-1C241.6,98.6,241.6,51.6,241.6,48.6Z"/>
      <path class="cls-5" d="M297.6,106.6s35.34,1.67,36.17,1.33,1.83-8.33-1.17-8.33-25.14,1-27.07,0-.93-26-.93-26S307.36,70,310,70.29s20,.31,21.62.31c2,0,4,.47,4-2,0-1.09,1-4.77,0-6s-5-1-5-1l-22,1s-3,0-3-1-1-8-1-8l1-11s19.43-1,23.72,0a14.51,14.51,0,0,0,7.28,0s2-6-1-7-34-1-34-1-7-1-7,5v62S295.27,107,297.6,106.6Z"/>
      <path class="cls-5" d="M501.6,106.6s35.34,1.67,36.17,1.33,1.83-8.33-1.17-8.33-25.14,1-27.07,0-.93-26-.93-26S511.36,70,514,70.29s20,.31,21.62.31c2,0,4,.47,4-2,0-1.09,1-4.77,0-6s-5-1-5-1l-22,1s-3,0-3-1-1-8-1-8l1-11s19.43-1,23.72,0a14.51,14.51,0,0,0,7.28,0s2-6-1-7-34-1-34-1-7-1-7,5v62S499.27,107,501.6,106.6Z"/>
      <path class="cls-5" d="M399.6,104.26s-18-23.66-20-25.66,0-5,0-5,10.86-4.74,13.93-6.87S399.6,56.6,398.6,50.6s-13-13-13-13c-2.32-.33-18.78-3.56-25-2-4,1-5,3-5,3s-5,53-2,72c0,0,6.41,1,7.71,0s1.29-31,1.29-32a2.15,2.15,0,0,1,2-2c1.41,0,9,6,10,8s12,18,13,19,3.52,6,4.76,6,6.24,0,7.24-1S399.6,104.26,399.6,104.26ZM361.73,66.4l.83-23.13a36,36,0,0,1,20,1.33c6,2,7,7,7,11s0,7-7,10S361.73,66.4,361.73,66.4Z"/>
      <path class="cls-5" d="M601.6,81.6c0-4-6-11-9.57-13.47s-4.43-3.53-4.43-6.53,1-4.37,4-7,3-7,2-10A18.11,18.11,0,0,0,585,35.18c-4.6-2.42-14.39-1.58-20.18-.64s-5.21,5.35-5.21,5.35V104.6c1,2,15.91,1,19,1s9-1,18-6S601.6,85.6,601.6,81.6ZM577.41,39.29a12,12,0,0,1,9.19,8.11c1,3.32,0,8.85-4,13.28s-16,4.42-16,4.42l-1-24.34A23.2,23.2,0,0,1,577.41,39.29ZM590.6,93.6c-4,5-24,5.51-24,5.51v-24c5-2.49,9-3.51,16.07-3.39S593.6,80.6,593.6,80.6,594.6,88.6,590.6,93.6Z"/>
      <path class="cls-5" d="M733.6,79.6c0-4-6-11-9.57-13.47s-4.43-3.53-4.43-6.53,1-4.37,4-7,3-7,2-10A18.11,18.11,0,0,0,717,33.18c-4.6-2.42-14.39-1.58-20.18-.64s-5.21,5.35-5.21,5.35V102.6c1,2,15.91,1,19,1s9-1,18-6S733.6,83.6,733.6,79.6ZM709.41,37.29a12,12,0,0,1,9.19,8.11c1,3.32,0,8.85-4,13.28s-16,4.42-16,4.42l-1-24.34A23.2,23.2,0,0,1,709.41,37.29ZM722.6,91.6c-4,5-24,5.51-24,5.51v-24c5-2.49,9-3.51,16.07-3.39S725.6,78.6,725.6,78.6,726.6,86.6,722.6,91.6Z"/>
      <path class="cls-5" d="M676.6,99.6c-.6-3.87-22.4-53.27-24-55-.68-.73-4.39-13-5.69-13s-3.52,3.08-3.85,3.52a.47.47,0,0,0-.07.12c-1.07,2.1-31.25,61.3-34.2,69.65a.89.89,0,0,0,.65,1.16c2.59.58,10.17,2.19,10.62,1,.54-1.44,9.83-23.73,10.54-24.44,1-1,1-3,5-2,2,.51,16.21,0,17.84,0a.75.75,0,0,1,.33.07,6.76,6.76,0,0,1,3.83,3.93c.94,2.82,4.54,15.39,5,16.86a.84.84,0,0,0,.13.27c.41.58,2.16,2.87,3.91,2.87a40,40,0,0,0,4,0C670.73,104.58,677.26,103.86,676.6,99.6ZM652.08,75.43c-4.48.17-19.57,0-19.57,0C631.6,72.6,642,51.72,642.6,50.6a7.47,7.47,0,0,1,3-3c3,0,9.6,19.58,9.6,19.58S656.55,75.27,652.08,75.43Z"/>
    </g>
  </g>
</svg>
